<?xml version="1.0" encoding="utf-8"?>
<!-- Generator: Adobe Illustrator 27.5.0, SVG Export Plug-In . SVG Version: 6.00 Build 0)  -->
<svg version="1.1" xmlns="http://www.w3.org/2000/svg" xmlns:xlink="http://www.w3.org/1999/xlink" x="0px" y="0px"
	 viewBox="0 0 750 500" style="enable-background:new 0 0 750 500;" xml:space="preserve">
<g id="Background_Simple">
	<g>
		<path style="fill:#92E3A9;" d="M704.054,144.434c-12.924-1.753-28.356,0.034-39.664-0.263
			c-25.041-0.657-50.082-1.293-75.125-1.911c-71.424-1.761-142.856-3.38-214.297-4.76c-72.63-1.403-145.28-2.653-217.936-3.027
			c-23.732-0.122-48.868-0.034-73.136,0.099c-16.81,0.093-42.916-4.855-55.631,5.563c-10.906,8.935-5.949,24.197-5.664,34.903
			c0.313,11.746,0.829,23.49,1.404,35.231c1.482,30.291,3.429,60.571,5.691,90.836c1.522,20.362,3.832,40.69,5.057,61.064
			c1.201,19.97-2.133,40.448,2.552,60.217c1.286,5.425,3.748,11.331,10.264,14.129c3.867,1.661,8.536,1.926,13.021,2.098
			c144.002,5.517,287.492-3.991,431.387-5.49c50.415-0.525,100.79-2.159,151.165-3.646c28.852-0.852,76.045,5.565,75.732-24.563
			c-0.148-14.23-2.395-28.01-1.481-42.315c2.35-36.715,4.586-73.434,6.708-110.156c1.076-18.631,2.123-37.263,3.138-55.895
			c0.705-12.928,6.804-33.374-4.687-44.554C718.042,147.606,711.46,145.439,704.054,144.434z"/>
		<path style="opacity:0.8;fill:#FFFFFF;" d="M704.054,144.434c-12.924-1.753-28.356,0.034-39.664-0.263
			c-25.041-0.657-50.082-1.293-75.125-1.911c-71.424-1.761-142.856-3.38-214.297-4.76c-72.63-1.403-145.28-2.653-217.936-3.027
			c-23.732-0.122-48.868-0.034-73.136,0.099c-16.81,0.093-42.916-4.855-55.631,5.563c-10.906,8.935-5.949,24.197-5.664,34.903
			c0.313,11.746,0.829,23.49,1.404,35.231c1.482,30.291,3.429,60.571,5.691,90.836c1.522,20.362,3.832,40.69,5.057,61.064
			c1.201,19.97-2.133,40.448,2.552,60.217c1.286,5.425,3.748,11.331,10.264,14.129c3.867,1.661,8.536,1.926,13.021,2.098
			c144.002,5.517,287.492-3.991,431.387-5.49c50.415-0.525,100.79-2.159,151.165-3.646c28.852-0.852,76.045,5.565,75.732-24.563
			c-0.148-14.23-2.395-28.01-1.481-42.315c2.35-36.715,4.586-73.434,6.708-110.156c1.076-18.631,2.123-37.263,3.138-55.895
			c0.705-12.928,6.804-33.374-4.687-44.554C718.042,147.606,711.46,145.439,704.054,144.434z"/>
	</g>
</g>
<g id="Clouds">
	<g>
		<path style="fill:none;stroke:#263238;stroke-miterlimit:10;" d="M329.004,69.591c-0.678,0.053-1.377,0.174-2.1,0.371
			c-9.856,2.688-11.647,10.752-15.231,13.439c-3.584,2.688-7.168-1.792-16.127,0c-8.96,1.792-13.439,5.376-13.439,5.376h253.556
			c0,0-5.376-15.231-19.711-20.607c-14.335-5.376-28.671,8.96-33.15,4.48c0,0-13.439-28.671-39.422-34.046
			c-13.5-2.793-21.921,3.363-27.902,10.803"/>
		<path style="fill:none;stroke:#263238;stroke-miterlimit:10;" d="M412.211,53.886c-3.729,5.567-6.44,11.016-9.151,13.388
			c-7.168,6.272-21.503-7.168-33.151-5.376c-11.647,1.792-11.647,15.231-19.711,16.127c-5.954,0.662-10.443-5.516-16.352-7.711"/>
		<path style="fill:none;stroke:#263238;stroke-miterlimit:10;" d="M672.696,89.51c-2.482-2.544-5.832-4.976-10.024-5.843
			c-10.07-2.083-12.848,8.681-15.625,11.112c-2.778,2.431-8.334-2.778-12.848-2.083c-4.514,0.695-4.514,5.903-7.639,6.25
			c-3.125,0.347-5.208-4.167-9.028-3.125c-3.819,1.042-4.514,4.167-5.903,5.208c-1.389,1.042-2.778-0.694-6.25,0
			c-3.472,0.695-5.208,2.083-5.208,2.083h98.267c0,0-2.083-5.903-7.639-7.986c-5.556-2.083-11.111,3.472-12.848,1.736
			c0,0-0.74-1.578-2.2-3.656"/>
		<path style="fill:none;stroke:#263238;stroke-miterlimit:10;" d="M364.533,146.118c0,0-5.208-11.111-15.278-13.195
			c-10.07-2.083-12.848,8.681-15.625,11.112c-2.778,2.431-8.334-2.778-12.848-2.083c-4.514,0.694-4.514,5.903-7.639,6.25
			c-3.125,0.347-5.208-4.167-9.028-3.125c-3.82,1.042-4.514,4.167-5.903,5.208c-1.389,1.042-2.778-0.695-6.25,0
			c-3.472,0.694-5.209,2.083-5.209,2.083h98.267c0,0-2.083-5.903-7.639-7.986C371.825,142.299,366.27,147.855,364.533,146.118z"/>
		<path style="fill:none;stroke:#263238;stroke-miterlimit:10;" d="M109.186,59.21c0,0-5.209-11.111-15.278-13.195
			c-10.07-2.083-12.848,8.681-15.626,11.112c-2.778,2.431-8.334-2.778-12.848-2.083c-4.514,0.694-4.514,5.903-7.639,6.25
			c-3.125,0.347-5.208-4.167-9.028-3.125c-3.819,1.042-4.514,4.167-5.903,5.208c-1.389,1.042-2.778-0.694-6.25,0
			c-3.472,0.694-5.209,2.083-5.209,2.083h98.267c0,0-2.084-5.903-7.639-7.986C116.477,55.391,110.922,60.947,109.186,59.21z"/>
	</g>
</g>
<g id="Mountains">
	<g>
		<path style="fill:none;stroke:#263238;stroke-miterlimit:10;" d="M16.126,312.531c-2.95,2.024-4.564,3.079-4.564,3.079"/>
		<path style="fill:none;stroke:#263238;stroke-miterlimit:10;" d="M572.81,367.065c0,0-264.371-207.99-307.143-207.401
			C244.769,159.952,89.14,256.24,60.642,279.197c-16.512,13.301-30.367,23.414-39.1,29.567"/>
		<path style="fill:none;stroke:#263238;stroke-miterlimit:10;" d="M445.757,133.469c16.896-9.11,70.151-37.29,95.296-44.352
			c10.987-3.086,15.156-1.93,22.66,1.416c34.935,15.579,170.425,134.546,170.425,134.546"/>
		<path style="fill:none;stroke:#263238;stroke-miterlimit:10;" d="M335.226,194.436l105.271-58.11c0,0,0.364-0.2,1.05-0.574"/>
		<path style="fill:none;stroke:#263238;stroke-miterlimit:10;" d="M329.176,190.692c0,0-32.718-17.527-33.497-14.801
			c-0.779,2.727,1.168,10.127-1.558,7.79c-2.726-2.337-12.074-10.127-12.074-10.127s-4.674,7.79-7.4,5.453
			c-2.727-2.337-7.401-7.79-7.401-7.79s-3.505,10.517-5.842,8.18c-2.337-2.337-5.063-6.621-5.063-6.621
			s-34.665,25.707-34.276,20.254c0.389-5.453,3.116-11.295,3.116-11.295l-16.359,10.516l0.39-5.843"/>
		<path style="fill:none;stroke:#263238;stroke-miterlimit:10;" d="M615.571,126.221c0,0-30.179-16.572-29.654-15.769
			c9.622,14.715,2.467,12.337,0,10.486c-2.467-1.85-20.356-13.57-20.356-13.57s2.467,13.57-2.467,11.72
			c-4.935-1.851-9.869-10.486-9.869-10.486l-4.935,6.168l-4.935-8.019c0,0-8.019,20.356-12.337,17.888
			c-4.318-2.467-3.701-14.804-3.701-14.804l-23.088,12.8l1.888-9.442l-19.828,8.97l9.914-14.163"/>
	</g>
</g>
<g id="Trees">
	<g>
		<g>
			<path style="fill:#92E3A9;" d="M157.185,33.007C96.32,33.007,46.98,82.012,46.98,142.462c0,28.027,10.611,53.589,28.055,72.952
				c7.98-1.156,22.526-1.952,38.602,3.517c21.303,7.247,34.579,19.121,37.486,21.895h9.876c2.907-2.774,16.183-14.648,37.486-21.895
				c17.504-5.954,33.197-4.483,40.572-3.205c17.61-19.4,28.333-45.087,28.333-73.264C267.389,82.012,218.049,33.007,157.185,33.007z
				"/>
			<path style="opacity:0.5;fill:#FFFFFF;" d="M157.185,33.007C96.32,33.007,46.98,82.012,46.98,142.462
				c0,28.027,10.611,53.589,28.055,72.952c7.98-1.156,22.526-1.952,38.602,3.517c21.303,7.247,34.579,19.121,37.486,21.895h9.876
				c2.907-2.774,16.183-14.648,37.486-21.895c17.504-5.954,33.197-4.483,40.572-3.205c17.61-19.4,28.333-45.087,28.333-73.264
				C267.389,82.012,218.049,33.007,157.185,33.007z"/>
		</g>
		<g>
			<path style="fill:#92E3A9;" d="M258.015,200.343c-21.255-24.321-58.068-26.923-82.223-5.812
				c-11.199,9.788-17.708,22.955-19.353,36.687c3.249,2.785,8.646,8.32,12.075,16.653c4.544,11.043,4.435,20.495,4.342,22.625
				l3.449,3.946c2.124,0.193,11.505,1.351,21.84,7.333c8.492,4.915,13.385,11.7,15.449,15.093
				c13.902,0.262,27.911-4.424,39.17-14.264C276.919,261.493,279.27,224.664,258.015,200.343z"/>
			<path style="opacity:0.5;fill:#FFFFFF;" d="M258.015,200.343c-21.255-24.321-58.068-26.923-82.223-5.812
				c-11.199,9.788-17.708,22.955-19.353,36.687c3.249,2.785,8.646,8.32,12.075,16.653c4.544,11.043,4.435,20.495,4.342,22.625
				l3.449,3.946c2.124,0.193,11.505,1.351,21.84,7.333c8.492,4.915,13.385,11.7,15.449,15.093
				c13.902,0.262,27.911-4.424,39.17-14.264C276.919,261.493,279.27,224.664,258.015,200.343z"/>
		</g>
		<g>
			<path style="fill:#92E3A9;" d="M28.071,214.449C2.783,242.8,5.111,286.144,33.269,311.26
				c13.055,11.645,29.371,17.322,45.638,17.241c2.777-4.198,8.45-11.304,17.676-16.52c12.227-6.913,23.274-8.163,25.774-8.365
				l4.103-4.6c-0.084-2.507-0.1-13.624,5.375-26.559c4.499-10.627,11.704-17.326,15.364-20.231
				c-1.72-16.263-9.23-31.931-22.356-43.637C96.686,183.474,53.359,186.097,28.071,214.449z"/>
			<path style="opacity:0.5;fill:#FFFFFF;" d="M28.071,214.449C2.783,242.8,5.111,286.144,33.269,311.26
				c13.055,11.645,29.371,17.322,45.638,17.241c2.777-4.198,8.45-11.304,17.676-16.52c12.227-6.913,23.274-8.163,25.774-8.365
				l4.103-4.6c-0.084-2.507-0.1-13.624,5.375-26.559c4.499-10.627,11.704-17.326,15.364-20.231
				c-1.72-16.263-9.23-31.931-22.356-43.637C96.686,183.474,53.359,186.097,28.071,214.449z"/>
		</g>
		<path style="fill:#263238;" d="M174.531,214.11c5.134-5.093,10.468-10.028,16.178-14.548c2.836-2.293,5.822-4.371,8.927-6.335
			c3.154-1.949,6.361-3.83,9.605-5.66c6.501-3.638,13.155-7.085,20.096-10.024c-7.144,2.517-14.063,5.565-20.853,8.823
			c-3.39,1.64-6.751,3.336-10.067,5.105c-3.321,1.814-6.575,3.785-9.627,5.942c-1.153,0.797-2.279,1.622-3.405,2.446l18.052-33.63
			l-24.771,38.791c-2.509,2.019-4.975,4.08-7.395,6.181c-4.002,3.481-7.891,7.03-11.702,10.688l-1.258-36.485l25.917-39.461
			l-26.107,33.941l-1.126-32.654l-1.862,36.538l-0.006,0.008l0.005,0.003l-1.866,36.622c-3.31-3.132-6.676-6.194-10.131-9.2
			c-2.717-2.36-5.483-4.679-8.316-6.932l-23.436-40.022l17.213,35.305c-0.988-0.719-1.971-1.443-2.98-2.141
			c-3.052-2.157-6.306-4.128-9.627-5.942c-3.316-1.769-6.677-3.465-10.067-5.105c-6.79-3.257-13.709-6.306-20.853-8.823
			c6.941,2.94,13.595,6.386,20.096,10.024c3.244,1.83,6.451,3.711,9.605,5.66c3.105,1.964,6.09,4.042,8.926,6.335
			c5.71,4.52,11.043,9.455,16.178,14.548c4.486,4.454,8.852,9.063,13.012,13.738l-0.919,84.912l-46.478-22.681l0.239,0.079
			l-13.658-23.913l7.577,20.983l-20.427-9.969l28.056,17.648l-12.386,3.378l17.239-0.325l39.728,24.99l-0.914,84.471l2.316,2.623
			l3.921-2.935l3.922,2.935l-0.822-117.388l19.925-24.906l28.741-7.625l-24.049,1.76l18.541-23.177l-14.881,14.675v-6.189
			l-3.835,9.97L160.2,281.346l-0.361-51.609C164.49,224.411,169.441,219.164,174.531,214.11z"/>
	</g>
	<g>
		<g>
			<path style="fill:#92E3A9;" d="M639.363,160.762c-40.241,0-72.863,32.4-72.863,72.367c0,18.53,7.016,35.431,18.549,48.233
				c5.276-0.764,14.893-1.29,25.522,2.325c14.085,4.791,22.862,12.642,24.784,14.476h6.529c1.922-1.834,10.7-9.685,24.784-14.476
				c11.573-3.937,21.949-2.964,26.825-2.119c11.643-12.826,18.733-29.81,18.733-48.439
				C712.226,193.162,679.604,160.762,639.363,160.762z"/>
			<path style="opacity:0.5;fill:#FFFFFF;" d="M639.363,160.762c-40.241,0-72.863,32.4-72.863,72.367
				c0,18.53,7.016,35.431,18.549,48.233c5.276-0.764,14.893-1.29,25.522,2.325c14.085,4.791,22.862,12.642,24.784,14.476h6.529
				c1.922-1.834,10.7-9.685,24.784-14.476c11.573-3.937,21.949-2.964,26.825-2.119c11.643-12.826,18.733-29.81,18.733-48.439
				C712.226,193.162,679.604,160.762,639.363,160.762z"/>
		</g>
		<g>
			<path style="fill:#92E3A9;" d="M706.028,271.398c-14.053-16.08-38.392-17.8-54.362-3.843
				c-7.405,6.471-11.708,15.177-12.796,24.256c2.148,1.841,5.717,5.501,7.984,11.01c3.004,7.301,2.932,13.55,2.871,14.959
				l2.28,2.609c1.404,0.128,7.606,0.893,14.44,4.848c5.615,3.25,8.849,7.735,10.214,9.979c9.191,0.173,18.453-2.925,25.898-9.431
				C718.527,311.828,720.081,287.478,706.028,271.398z"/>
			<path style="opacity:0.5;fill:#FFFFFF;" d="M706.028,271.398c-14.053-16.08-38.392-17.8-54.362-3.843
				c-7.405,6.471-11.708,15.177-12.796,24.256c2.148,1.841,5.717,5.501,7.984,11.01c3.004,7.301,2.932,13.55,2.871,14.959
				l2.28,2.609c1.404,0.128,7.606,0.893,14.44,4.848c5.615,3.25,8.849,7.735,10.214,9.979c9.191,0.173,18.453-2.925,25.898-9.431
				C718.527,311.828,720.081,287.478,706.028,271.398z"/>
		</g>
		<g>
			<path style="fill:#92E3A9;" d="M553.998,280.724c-16.719,18.745-15.18,47.402,3.437,64.008
				c8.632,7.699,19.419,11.453,30.174,11.399c1.836-2.775,5.587-7.474,11.687-10.922c8.084-4.57,15.388-5.397,17.041-5.53
				l2.713-3.041c-0.056-1.657-0.066-9.008,3.554-17.559c2.974-7.026,7.738-11.456,10.158-13.376
				c-1.137-10.753-6.103-21.111-14.781-28.851C599.363,260.245,570.717,261.979,553.998,280.724z"/>
			<path style="opacity:0.5;fill:#FFFFFF;" d="M553.998,280.724c-16.719,18.745-15.18,47.402,3.437,64.008
				c8.632,7.699,19.419,11.453,30.174,11.399c1.836-2.775,5.587-7.474,11.687-10.922c8.084-4.57,15.388-5.397,17.041-5.53
				l2.713-3.041c-0.056-1.657-0.066-9.008,3.554-17.559c2.974-7.026,7.738-11.456,10.158-13.376
				c-1.137-10.753-6.103-21.111-14.781-28.851C599.363,260.245,570.717,261.979,553.998,280.724z"/>
		</g>
		<path style="fill:#263238;" d="M650.832,280.5c3.394-3.367,6.921-6.63,10.696-9.619c1.875-1.516,3.849-2.89,5.902-4.189
			c2.086-1.289,4.205-2.532,6.351-3.742c4.298-2.405,8.697-4.684,13.287-6.628c-4.724,1.664-9.298,3.68-13.787,5.833
			c-2.241,1.084-4.463,2.205-6.656,3.375c-2.195,1.2-4.347,2.503-6.365,3.929c-0.762,0.527-1.507,1.072-2.252,1.617l11.935-22.235
			l-16.378,25.647c-1.659,1.335-3.289,2.698-4.889,4.087c-2.646,2.302-5.217,4.648-7.737,7.067l-0.832-24.122l17.135-26.09
			l-17.261,22.44l-0.745-21.59l-1.231,24.158l-0.004,0.005l0.004,0.002l-1.234,24.213c-2.189-2.071-4.414-4.095-6.698-6.082
			c-1.797-1.561-3.625-3.093-5.498-4.583l-15.495-26.461l11.38,23.342c-0.654-0.475-1.303-0.954-1.97-1.415
			c-2.018-1.426-4.169-2.729-6.365-3.929c-2.192-1.17-4.414-2.291-6.656-3.375c-4.489-2.154-9.064-4.169-13.787-5.833
			c4.589,1.944,8.989,4.222,13.287,6.628c2.145,1.21,4.265,2.454,6.351,3.742c2.053,1.299,4.027,2.673,5.902,4.189
			c3.775,2.988,7.301,6.251,10.696,9.619c2.966,2.945,5.853,5.992,8.603,9.083l-0.608,56.14l-30.729-14.996l0.158,0.052l-9.03-15.81
			l5.01,13.873l-13.506-6.591l18.55,11.668l-8.189,2.233l11.398-0.215l26.266,16.522l-0.605,55.849l1.531,1.734l2.593-1.94
			l2.593,1.94l-0.543-77.612l13.174-16.467l19.003-5.041l-15.9,1.163l12.259-15.324l-9.839,9.702v-4.092l-2.535,6.592
			l-16.213,15.988l-0.239-34.122C644.193,287.311,647.466,283.842,650.832,280.5z"/>
	</g>
</g>
<g id="Floor">
	<path style="fill:#92E3A9;" d="M111.953,412.769l-96.835,3.745l101.643,17.975l-52.195,8.988l37.086,8.239l-63.87,1.498
		l80.353,8.988l-62.496,11.235c0,0,310.422,10.486,307.675,8.988c-2.747-1.498-89.967,8.988-89.967,8.988l289.819-7.49
		l-34.339-10.486l67.991-2.996l-10.988-5.992l145.596-2.247l-58.376-12.733l51.508,1.498l-73.485-11.235l85.16-2.996l-41.893-6.741
		l23.35-0.749l-49.448-4.494l76.232-6.741l-37.086-0.749L111.953,412.769z"/>
</g>
<g id="Grass">
	<g>
		<path style="fill:#263238;stroke:#263238;stroke-miterlimit:10;" d="M496.921,401.631c0.686,0.184,2.255-0.088,2.257-0.088
			c0.016-0.003-0.494-0.976-0.533-1.034c-0.454-0.668-1.726-1.694-2.597-1.441c-0.628,0.182-0.887,0.874-0.652,1.453
			C495.635,401.114,496.336,401.475,496.921,401.631z"/>
		<path style="fill:#263238;stroke:#263238;stroke-miterlimit:10;" d="M512.9,399.59c0.015,0.007,0.129-1.086,0.128-1.155
			c-0.009-0.807-0.502-2.361-1.369-2.629c-0.624-0.193-1.224,0.242-1.348,0.854c-0.127,0.625,0.257,1.312,0.658,1.763
			C511.44,398.953,512.899,399.589,512.9,399.59z"/>
		<path style="fill:#263238;stroke:#263238;stroke-miterlimit:10;" d="M330.129,393.107c0.768,0.206,2.525-0.098,2.527-0.098
			c0.018-0.003-0.553-1.093-0.596-1.158c-0.509-0.748-1.933-1.896-2.908-1.613c-0.703,0.204-0.993,0.979-0.73,1.627
			C328.69,392.527,329.475,392.932,330.129,393.107z"/>
		<path style="fill:#263238;stroke:#263238;stroke-miterlimit:10;" d="M348.02,390.821c0.017,0.007,0.144-1.216,0.144-1.294
			c-0.01-0.904-0.562-2.644-1.532-2.944c-0.699-0.216-1.371,0.27-1.51,0.956c-0.142,0.7,0.288,1.469,0.737,1.974
			C346.385,390.108,348.019,390.82,348.02,390.821z"/>
		<path style="fill:#263238;stroke:#263238;stroke-miterlimit:10;" d="M402.094,390.095c0.882,0.236,2.899-0.113,2.9-0.113
			c0.021-0.004-0.634-1.255-0.685-1.329c-0.584-0.859-2.219-2.177-3.338-1.852c-0.806,0.234-1.14,1.124-0.838,1.868
			C400.443,389.429,401.343,389.893,402.094,390.095z"/>
		<path style="fill:#263238;stroke:#263238;stroke-miterlimit:10;" d="M422.63,387.471c0.02,0.009,0.166-1.395,0.165-1.485
			c-0.012-1.037-0.646-3.035-1.759-3.379c-0.802-0.248-1.573,0.31-1.733,1.097c-0.164,0.803,0.331,1.686,0.845,2.266
			C420.754,386.652,422.629,387.47,422.63,387.471z"/>
		<polygon style="fill:#263238;stroke:#263238;stroke-miterlimit:10;" points="467.041,394.754 466.597,396.215 467.188,396.998 		
			"/>
		<path style="fill:#263238;stroke:#263238;stroke-miterlimit:10;" d="M623.504,424.748l-9.876-1.725l-2.822,1.38l0.846-3.796
			l-6.233,3.688l1.436-4.723l-3.386,2.07l-0.282-3.105l-2.257,2.415l-0.282-3.451l-2.822,3.795v-4.516h40.607l-11.652,3.066
			l86.71-5.128l-28.903-2.797l13.053-2.331l-16.316-2.331l-4.662,1.865l1.399-5.128l-10.298,4.982l2.373-6.381l-5.594,2.797
			l-0.466-4.195l-3.729,3.263l-0.466-4.662l-4.662,5.128v-8.391l-2.488,3.981l-2.174,3.478v-6.526l-1.398-5.594l-6.197,6.507
			l-3.126,3.283l1.399-8.857c0,0-5.128,6.526-4.196,5.128c0.932-1.399-0.466-3.729-0.466-3.729l-5.632,5.301l-0.473-3.544
			l-1.26,5.174l-0.56,0.527l1.865-6.993l-4.662,2.797l-0.932-5.594l-5.594,6.06l-0.932-8.391l-2.331,5.594l-2.331-9.324l-0.855,5.56
			l-0.772-1.273l0.622,2.246l-0.86,5.587l-6.06-9.79l0.932,11.655l-5.594-6.06l0.8,10.805v1.694l-0.924-0.616l-3.374-5.752
			l-0.193,3.374l-5.167-3.445v1.557l-2.262,3.367l-8.926-6.323l6.427,10.042l-1.236,1.84l-1.902,0.19l-1.589-9.137l-5.08,9.769
			l1.563-16.119l-5.08,15.631l-3.517-11.235l0.624,12.399l-1.825,0.182l-1.564-3.09l0.211,3.225l-1.954,0.195l-9.558-4.608
			l3.517,4.885l-3.007,0.409l-0.06-0.729l-0.609,0.819l-2.213,0.301v-3.535l-1.506,2.947l-0.436,0.853l-0.88,0.12v-3.229
			l-0.846-4.141l-3.751,4.816l-1.892,2.43l0.846-6.556c0,0-3.104,4.831-2.539,3.796c0.564-1.035-0.282-2.76-0.282-2.76l-4.797,5.521
			l1.129-5.176l-2.822,2.07l-0.564-4.141l-3.386,4.486l-0.564-6.211l-1.411,4.141l-1.411-6.901l-1.129,8.971l-3.668-7.246
			l0.564,8.626l-3.386-4.486l0.365,6.025l-4.884-0.853l-0.842-0.686v0.539l-1.539-0.269c0.433-0.179,0.845-0.457,1.032-0.866
			c0.26-0.568,0.031-1.271-0.588-1.48c-0.859-0.29-2.175,0.679-2.657,1.327c-0.03,0.04-0.324,0.544-0.48,0.824
			c0.002-0.309,0.005-0.617-0.003-0.93c-0.023-0.903-0.075-1.816-0.123-2.727c-0.015-0.279-0.026-0.557-0.038-0.836
			c0.121,0.026,1.563,0.328,2.228,0.18c0.591-0.131,1.306-0.462,1.572-1.043c0.26-0.568,0.031-1.271-0.588-1.48
			c-0.859-0.29-2.174,0.679-2.657,1.327c-0.036,0.049-0.459,0.775-0.557,0.964c-0.027-0.613-0.048-1.225-0.045-1.829
			c0.004-0.833,0.054-1.65,0.161-2.438c0.056,0.012,1.56,0.334,2.241,0.183c0.59-0.131,1.306-0.462,1.572-1.042
			c0.26-0.568,0.031-1.271-0.588-1.48c-0.859-0.29-2.174,0.679-2.657,1.327c-0.038,0.051-0.491,0.832-0.564,0.979
			c0.007-0.047,0.008-0.096,0.015-0.143c0.125-0.84,0.352-1.638,0.601-2.374c0.144-0.428,0.306-0.83,0.472-1.217
			c0.274,0.089,1.53,0.479,2.157,0.411c0.602-0.066,1.349-0.316,1.678-0.864c0.321-0.536,0.171-1.26-0.422-1.535
			c-0.822-0.383-2.236,0.437-2.788,1.028c-0.03,0.032-0.298,0.393-0.49,0.658c0.077-0.173,0.154-0.354,0.232-0.519
			c0.29-0.619,0.594-1.169,0.868-1.653c0.158-0.274,0.306-0.519,0.446-0.746c0.314-0.053,1.578-0.281,2.094-0.624
			c0.503-0.335,1.051-0.9,1.089-1.537c0.037-0.624-0.432-1.197-1.084-1.169c-0.906,0.038-1.782,1.415-1.998,2.193
			c-0.019,0.067-0.189,1.152-0.173,1.15c0,0,0.015-0.002,0.019-0.003c-0.14,0.216-0.288,0.45-0.444,0.708
			c-0.284,0.479-0.602,1.023-0.906,1.639c-0.306,0.614-0.622,1.29-0.889,2.032c-0.27,0.743-0.515,1.539-0.661,2.391
			c-0.002,0.01-0.002,0.02-0.004,0.03c-0.035-0.263-0.157-0.993-0.173-1.048c-0.223-0.776-1.11-2.146-2.017-2.176
			c-0.653-0.022-1.117,0.555-1.074,1.178c0.043,0.637,0.596,1.198,1.102,1.528c0.571,0.372,2.033,0.597,2.15,0.614
			c-0.132,0.813-0.201,1.658-0.224,2.517c-0.013,0.491-0.012,0.986-0.004,1.482c-0.038-0.226-0.073-0.428-0.081-0.456
			c-0.223-0.776-1.11-2.145-2.017-2.176c-0.653-0.022-1.117,0.555-1.074,1.178c0.043,0.637,0.596,1.198,1.102,1.528
			c0.514,0.335,1.757,0.552,2.086,0.604c0.005,0.19,0.008,0.381,0.014,0.571c0.015,0.478,0.021,0.948,0.033,1.423l-0.805,0.477
			c-0.364-0.446-0.814-0.799-1.27-0.815c-0.653-0.022-1.117,0.555-1.074,1.178c0.02,0.296,0.157,0.573,0.342,0.821l-2.834,1.677
			c-0.062-0.101-0.119-0.203-0.182-0.303l0.115-0.378c0.47-0.202,1.274-0.579,1.614-0.931c0.42-0.434,0.834-1.103,0.734-1.733
			c-0.095-0.6-0.647-1.047-1.259-0.919l0.079-0.26l-2.955,1.806c-0.175-0.237-0.344-0.475-0.52-0.712l-0.111-1.22
			c0.466-0.213,1.077-0.525,1.362-0.82c0.42-0.434,0.834-1.103,0.734-1.734c-0.098-0.617-0.678-1.077-1.31-0.911
			c-0.877,0.23-1.438,1.762-1.482,2.568c-0.002,0.035,0.014,0.326,0.032,0.608l-0.179,0.192c-0.285-0.395-0.57-0.789-0.833-1.19
			c-0.458-0.697-0.869-1.406-1.216-2.122c0.054-0.021,1.486-0.579,1.97-1.079c0.42-0.434,0.834-1.103,0.734-1.734
			c-0.098-0.617-0.678-1.077-1.31-0.911c-0.877,0.23-1.438,1.762-1.482,2.568c-0.003,0.063,0.051,0.964,0.072,1.126
			c-0.021-0.043-0.047-0.084-0.067-0.127c-0.361-0.77-0.613-1.56-0.813-2.311c-0.117-0.436-0.204-0.86-0.28-1.274
			c0.277-0.077,1.542-0.441,2.027-0.843c0.465-0.385,0.951-1.005,0.921-1.643c-0.029-0.624-0.555-1.145-1.202-1.049
			c-0.897,0.133-1.623,1.594-1.756,2.39c-0.007,0.043-0.031,0.492-0.045,0.818c-0.031-0.187-0.067-0.38-0.093-0.56
			c-0.101-0.676-0.151-1.301-0.192-1.856c-0.02-0.315-0.032-0.601-0.041-0.868c0.233-0.217,1.16-1.102,1.4-1.671
			c0.235-0.556,0.378-1.329,0.057-1.881c-0.315-0.541-1.022-0.761-1.552-0.379c-0.735,0.53-0.703,2.16-0.453,2.927
			c0.022,0.066,0.48,1.065,0.493,1.054c0,0,0.011-0.011,0.014-0.013c0.003,0.257,0.009,0.533,0.022,0.834
			c0.028,0.556,0.065,1.184,0.152,1.865c0.085,0.681,0.196,1.418,0.383,2.184c0.187,0.768,0.423,1.566,0.773,2.358
			c0.004,0.009,0.009,0.018,0.013,0.026c-0.174-0.2-0.681-0.742-0.725-0.779c-0.615-0.525-2.114-1.179-2.887-0.706
			c-0.557,0.341-0.624,1.077-0.243,1.573c0.191,0.249,0.474,0.413,0.784,0.518l-0.735,1.438l-1.316,2.574v-4.831l-0.846-4.141
			l-3.751,4.816l-1.892,2.43l0.846-6.556c0,0-3.104,4.831-2.539,3.795c0.564-1.035-0.282-2.76-0.282-2.76l-4.797,5.521l1.129-5.176
			l-2.822,2.07l-0.564-4.141l-3.386,4.486l-0.564-6.211l-1.411,4.141l-1.411-6.901l-1.129,8.971l-3.668-7.246l0.389,5.944
			l-1.266,0.774l-1.945-2.577l0.22,3.632l-0.197,0.12l-0.282-3.105l-2.257,2.415l-0.282-3.45l-2.822,3.796v-6.211l-1.506,2.947
			l-1.316,2.574v-4.831l-0.847-4.141l-3.751,4.816l-1.892,2.43l0.846-6.556c0,0-3.104,4.831-2.54,3.796
			c0.564-1.035-0.282-2.76-0.282-2.76l-4.797,5.521l1.129-5.176l-2.822,2.07l-0.564-4.141l-3.386,4.486l-0.564-6.211l-1.411,4.141
			l-1.411-6.901l-1.129,8.971l-3.668-7.246l0.564,8.626l-3.386-4.486l0.564,9.316l-1.832-1.494l0.175-1.356
			c0,0-0.27,0.421-0.634,0.982l-0.823-0.671c0.722-0.191,1.533-0.597,1.85-1.289c0.334-0.73,0.039-1.634-0.756-1.902
			c-1.003-0.339-2.482,0.656-3.211,1.466l-0.695-0.567v1.643c-0.044,0.078-0.09,0.158-0.126,0.223
			c0.003-0.397,0.007-0.794-0.003-1.195c-0.03-1.16-0.097-2.334-0.158-3.505c-0.019-0.359-0.034-0.716-0.049-1.074
			c0.156,0.033,2.009,0.421,2.863,0.231c0.759-0.168,1.679-0.594,2.02-1.34c0.335-0.73,0.04-1.633-0.756-1.902
			c-1.104-0.373-2.795,0.873-3.415,1.706c-0.047,0.063-0.589,0.995-0.715,1.239c-0.035-0.788-0.062-1.574-0.058-2.35
			c0.005-1.07,0.069-2.121,0.207-3.133c0.073,0.016,2.005,0.429,2.879,0.235c0.759-0.169,1.679-0.594,2.02-1.34
			c0.334-0.73,0.04-1.633-0.756-1.902c-1.104-0.373-2.794,0.873-3.415,1.706c-0.049,0.065-0.632,1.069-0.724,1.259
			c0.008-0.06,0.01-0.124,0.019-0.184c0.161-1.079,0.452-2.105,0.773-3.051c0.185-0.55,0.393-1.066,0.606-1.564
			c0.352,0.114,1.966,0.616,2.772,0.528c0.773-0.085,1.734-0.406,2.156-1.111c0.413-0.689,0.219-1.619-0.542-1.973
			c-1.057-0.491-2.874,0.562-3.583,1.322c-0.038,0.041-0.383,0.505-0.63,0.846c0.099-0.223,0.198-0.455,0.298-0.667
			c0.373-0.796,0.764-1.502,1.115-2.125c0.203-0.352,0.393-0.667,0.574-0.959c0.404-0.068,2.028-0.361,2.691-0.802
			c0.647-0.43,1.351-1.157,1.4-1.975c0.047-0.801-0.555-1.538-1.394-1.503c-1.165,0.048-2.291,1.818-2.568,2.818
			c-0.024,0.087-0.243,1.481-0.222,1.477c0,0,0.02-0.003,0.024-0.004c-0.18,0.278-0.37,0.578-0.57,0.91
			c-0.366,0.616-0.773,1.315-1.165,2.106c-0.394,0.79-0.799,1.658-1.143,2.612c-0.346,0.955-0.661,1.978-0.849,3.073
			c-0.002,0.012-0.003,0.026-0.005,0.038c-0.045-0.338-0.202-1.277-0.222-1.347c-0.286-0.997-1.427-2.758-2.592-2.797
			c-0.839-0.028-1.435,0.713-1.381,1.515c0.056,0.818,0.766,1.539,1.417,1.964c0.734,0.479,2.613,0.767,2.763,0.79
			c-0.17,1.045-0.258,2.131-0.288,3.234c-0.017,0.631-0.015,1.267-0.005,1.905c-0.048-0.29-0.093-0.55-0.104-0.585
			c-0.286-0.998-1.427-2.757-2.592-2.796c-0.84-0.028-1.435,0.713-1.38,1.514c0.055,0.818,0.766,1.539,1.416,1.963
			c0.66,0.431,2.258,0.709,2.681,0.777c0.007,0.245,0.01,0.489,0.018,0.734c0.036,1.174,0.077,2.344,0.081,3.494
			c0.002,0.405-0.011,0.804-0.023,1.203c-0.043-0.258-0.082-0.475-0.091-0.507c-0.286-0.997-1.427-2.757-2.592-2.796
			c-0.84-0.028-1.435,0.713-1.381,1.514c0.025,0.366,0.185,0.711,0.408,1.02l-0.945-0.819c0.211-0.409,0.335-0.857,0.266-1.292
			c-0.126-0.793-0.871-1.384-1.684-1.171c-1.128,0.296-1.848,2.264-1.904,3.3c-0.003,0.065,0.04,0.812,0.072,1.223
			c-0.218-0.332-0.433-0.666-0.665-0.995c-0.09-0.128-0.185-0.255-0.276-0.383l-0.128-1.409l-0.285,0.836
			c-0.457-0.628-0.919-1.255-1.383-1.88c-0.215-0.289-0.424-0.579-0.636-0.868c0.149-0.058,1.909-0.753,2.516-1.381
			c0.54-0.558,1.072-1.418,0.943-2.228c-0.126-0.793-0.871-1.384-1.684-1.171c-1.128,0.296-1.848,2.264-1.904,3.3
			c-0.004,0.078,0.06,1.154,0.09,1.427c-0.154-0.211-0.295-0.426-0.447-0.638l-0.032-0.156l-0.012,0.093
			c-0.291-0.408-0.588-0.814-0.859-1.228c-0.589-0.895-1.116-1.806-1.562-2.727c0.07-0.027,1.91-0.744,2.532-1.387
			c0.54-0.558,1.072-1.418,0.943-2.228c-0.125-0.793-0.871-1.384-1.684-1.171c-1.127,0.296-1.848,2.264-1.904,3.3
			c-0.004,0.081,0.065,1.239,0.093,1.447c-0.027-0.055-0.06-0.108-0.086-0.163c-0.463-0.989-0.788-2.004-1.045-2.97
			c-0.15-0.561-0.262-1.105-0.36-1.637c0.357-0.099,1.981-0.567,2.605-1.084c0.598-0.495,1.221-1.292,1.183-2.111
			c-0.037-0.802-0.714-1.471-1.544-1.348c-1.153,0.171-2.086,2.048-2.256,3.072c-0.009,0.056-0.041,0.632-0.057,1.052
			c-0.04-0.241-0.086-0.489-0.12-0.72c-0.129-0.869-0.195-1.673-0.246-2.385c-0.026-0.405-0.042-0.772-0.052-1.116
			c0.299-0.279,1.491-1.416,1.8-2.148c0.301-0.714,0.486-1.707,0.074-2.417c-0.404-0.695-1.314-0.978-1.994-0.488
			c-0.945,0.681-0.904,2.776-0.582,3.762c0.028,0.085,0.617,1.368,0.633,1.354c0,0,0.015-0.013,0.018-0.017
			c0.004,0.331,0.012,0.685,0.028,1.072c0.036,0.715,0.083,1.522,0.195,2.397c0.109,0.875,0.252,1.822,0.492,2.807
			c0.24,0.987,0.543,2.013,0.993,3.03c0.005,0.012,0.012,0.023,0.017,0.034c-0.224-0.257-0.875-0.954-0.932-1.001
			c-0.791-0.675-2.716-1.516-3.71-0.908c-0.716,0.438-0.802,1.384-0.313,2.022c0.499,0.652,1.491,0.863,2.268,0.859
			c0.877-0.004,2.604-0.796,2.742-0.86c0.437,0.965,0.964,1.919,1.551,2.855c0.335,0.536,0.689,1.065,1.051,1.592
			c-0.201-0.216-0.382-0.407-0.411-0.431c-0.791-0.675-2.717-1.516-3.71-0.908c-0.716,0.438-0.802,1.384-0.313,2.022
			c0.499,0.652,1.491,0.863,2.269,0.859c0.553-0.002,1.443-0.319,2.063-0.57l-0.37,2.943c-0.007,0.004-0.016,0.005-0.023,0.009
			c-0.716,0.438-0.802,1.384-0.313,2.022c0.02,0.026,0.051,0.04,0.072,0.065l-0.195,1.552l-0.362-0.063l-0.173-2.402l-0.418,1.545
			l-2.812-5.555l0.005,0.079l-0.564,5.64l-1.134-0.198l-0.063,0.031l-1.065-1.411l0.11,1.811l-1.229-1.622l0.179-0.803l-0.259-0.211
			l-0.475,0.281l-2.892-3.818l1.589,4.589l-4.101,2.426l1.436-4.723l-1.698,1.038l0.573-0.041v0.538l-0.573-0.496l-1.688,1.032
			l-0.282-3.105l-2.257,2.415l-0.282-3.451l-2.822,3.796v-6.211l-1.506,2.946l-1.316,2.574v-4.831l-0.846-4.141l-3.751,4.816
			l-1.892,2.43l0.846-6.556c0,0-3.104,4.831-2.539,3.796c0.564-1.035-0.282-2.76-0.282-2.76l-4.797,5.521l1.129-5.176l-2.822,2.07
			l-0.564-4.141l-3.386,4.486l-0.564-6.211l-1.411,4.141l-1.411-6.901l-1.129,8.971l-3.668-7.246l0.564,8.626l-3.386-4.486
			l0.457,7.544l-0.744,1.078l-2.266-1.847l0.102-0.59l-0.387,0.358l-2.523-2.057v2.553c-0.177,0.106-0.344,0.224-0.503,0.348
			l-0.343-3.166c0.481,0.057,1.003,0.089,1.344,0.013c0.661-0.147,1.462-0.517,1.76-1.167c0.291-0.636,0.034-1.423-0.659-1.657
			c-0.962-0.325-2.435,0.76-2.975,1.486c-0.041,0.055-0.513,0.867-0.623,1.08c-0.03-0.687-0.054-1.371-0.05-2.047
			c0.004-0.932,0.06-1.847,0.18-2.73c0.063,0.014,1.746,0.374,2.508,0.205c0.661-0.147,1.463-0.517,1.76-1.167
			c0.291-0.636,0.035-1.423-0.659-1.657c-0.962-0.325-2.435,0.76-2.975,1.486c-0.042,0.057-0.55,0.931-0.631,1.096
			c0.007-0.052,0.009-0.108,0.017-0.16c0.14-0.94,0.394-1.834,0.673-2.658c0.161-0.48,0.342-0.929,0.528-1.362
			c0.307,0.099,1.713,0.537,2.415,0.46c0.674-0.074,1.511-0.354,1.878-0.968c0.36-0.601,0.191-1.41-0.472-1.719
			c-0.921-0.428-2.504,0.49-3.121,1.151c-0.034,0.036-0.334,0.44-0.549,0.737c0.087-0.194,0.173-0.396,0.26-0.581
			c0.325-0.694,0.666-1.308,0.971-1.851c0.176-0.307,0.342-0.581,0.5-0.836c0.352-0.059,1.766-0.315,2.344-0.699
			c0.563-0.375,1.177-1.008,1.219-1.721c0.041-0.698-0.483-1.34-1.214-1.309c-1.015,0.042-1.996,1.584-2.237,2.455
			c-0.021,0.076-0.212,1.29-0.193,1.287c0,0,0.017-0.003,0.021-0.003c-0.157,0.242-0.322,0.503-0.497,0.793
			c-0.319,0.537-0.673,1.146-1.015,1.835c-0.343,0.688-0.696,1.445-0.996,2.275c-0.302,0.832-0.576,1.723-0.74,2.677
			c-0.002,0.011-0.002,0.022-0.004,0.033c-0.039-0.294-0.176-1.112-0.194-1.174c-0.249-0.869-1.243-2.402-2.258-2.436
			c-0.731-0.024-1.25,0.621-1.203,1.319c0.049,0.713,0.667,1.341,1.234,1.711c0.639,0.417,2.276,0.668,2.407,0.688
			c-0.148,0.91-0.225,1.856-0.251,2.818c-0.015,0.55-0.013,1.104-0.004,1.66c-0.042-0.253-0.081-0.479-0.09-0.51
			c-0.249-0.869-1.243-2.402-2.258-2.436c-0.298-0.01-0.557,0.095-0.761,0.266l-0.012-0.173l-0.067,0.246
			c-0.247,0.249-0.388,0.605-0.363,0.98c0.004,0.063,0.035,0.122,0.047,0.184l-0.463,1.711l-0.462-0.401l0.376,0.719l-0.386,1.428
			c-0.149-0.062-0.313-0.093-0.483-0.085l-1.421-8.749l-0.503,5.027c-0.259-0.439-0.762-0.704-1.3-0.563
			c-0.982,0.258-1.61,1.973-1.659,2.875c-0.001,0.015,0.002,0.079,0.006,0.164l-1.39-3.456c0.434-0.217,0.889-0.478,1.131-0.729
			c0.47-0.486,0.933-1.235,0.822-1.941c-0.109-0.691-0.759-1.206-1.467-1.02c-0.982,0.258-1.61,1.973-1.659,2.875
			c-0.004,0.071,0.057,1.079,0.081,1.261c-0.023-0.048-0.052-0.094-0.075-0.142c-0.404-0.862-0.686-1.746-0.91-2.588
			c-0.131-0.488-0.229-0.963-0.314-1.426c0.311-0.086,1.726-0.494,2.269-0.944c0.521-0.432,1.064-1.126,1.031-1.839
			c-0.033-0.699-0.622-1.282-1.345-1.175c-1.005,0.149-1.817,1.784-1.966,2.676c-0.008,0.049-0.035,0.55-0.05,0.916
			c-0.035-0.21-0.075-0.426-0.105-0.627c-0.113-0.757-0.169-1.457-0.215-2.078c-0.023-0.353-0.036-0.673-0.046-0.972
			c0.26-0.243,1.299-1.234,1.568-1.871c0.263-0.622,0.424-1.488,0.064-2.105c-0.352-0.605-1.145-0.852-1.737-0.425
			c-0.823,0.593-0.788,2.418-0.507,3.278c0.024,0.074,0.538,1.192,0.551,1.18c0,0,0.013-0.012,0.016-0.015
			c0.003,0.288,0.01,0.597,0.025,0.934c0.031,0.623,0.073,1.326,0.17,2.088c0.095,0.762,0.219,1.587,0.429,2.445
			c0.209,0.86,0.473,1.754,0.865,2.64c0.004,0.01,0.01,0.02,0.015,0.03c-0.195-0.224-0.763-0.831-0.812-0.872
			c-0.689-0.588-2.367-1.32-3.232-0.791c-0.624,0.382-0.699,1.205-0.273,1.762c0.435,0.568,1.299,0.751,1.976,0.749
			c0.764-0.004,2.269-0.694,2.388-0.749c0.255,0.564,0.556,1.121,0.874,1.675l0.064,1.236c-0.763-0.348-1.689-0.554-2.262-0.203
			c-0.624,0.382-0.699,1.205-0.273,1.761c0.435,0.568,1.299,0.752,1.976,0.748c0.189-0.001,0.424-0.046,0.672-0.111l0.07,1.344
			l-1.445,1.112l-2.221-3.703l0.251,5.219l-0.224,0.173l-0.322-4.463l-1.572,2.118l-1.195-1.578l-0.132-2.027l-0.615,1.042
			l-1.176-1.552l0.773,2.233l-2.204,3.732v-8.926l-1.719,4.234l-1.502,3.7v-6.942l-0.966-5.951l-4.282,6.921l-2.16,3.492
			l0.966-9.422c0,0-3.544,6.942-2.899,5.455c0.644-1.488-0.322-3.967-0.322-3.967l-5.476,7.934l1.289-7.438l-3.221,2.975
			l-0.644-5.951l-3.866,6.446l-0.644-8.926l-1.611,5.951l-1.611-9.918l-1.289,12.893l-4.188-10.413l0.644,12.397l-3.866-6.447
			l0.644,13.389l-1.941-1.992l0.085-0.697l-0.225,0.553l-0.01-0.01l0.2-1.949c0,0-0.309,0.604-0.724,1.412l-4.15-4.258v6.728
			l-0.085,0.122l-7.647-8.338l3.339,8.032l-1.365,1.261l-0.644-5.951l-3.866,6.447l-0.644-8.926l-1.611,5.951l-1.611-9.918
			l-1.178,11.784l-0.611-0.134l-3.688-9.17l0.439,8.456l-2.372-0.522l-0.073,0.045l-1.216-2.028l0.13,2.697l-2.063,1.27l0.966-5.455
			l-7.116,5.299l1.639-6.787l-3.866,2.975l-0.322-4.463l-2.577,3.471l-0.322-4.959l-3.221,5.454v-8.926l-1.719,4.234l-1.502,3.7
			v-6.942l-0.966-5.951l-4.283,6.922l-2.16,3.492l0.966-9.422c0,0-3.544,6.942-2.899,5.455c0.644-1.488-0.322-3.967-0.322-3.967
			l-5.476,7.934l1.288-7.438l-3.221,2.975l-0.644-5.951l-3.866,6.446l-0.644-8.926l-1.611,5.951l-1.611-9.918l-1.289,12.893
			l-4.188-10.413l0.644,12.397l-3.866-6.447l0.644,13.389l-6.765-6.942v6.942l-7.731-8.43l4.818,11.589l-9.682-1.383l-4.662,1.865
			l1.399-5.128l-10.298,4.982l2.373-6.381l-5.594,2.797l-0.466-4.195l-3.729,3.263l-0.466-4.662l-4.662,5.128v-8.391l-2.488,3.981
			l-2.174,3.478v-6.526l-1.398-5.594l-6.197,6.507l-3.126,3.283l1.398-8.857c0,0-5.128,6.526-4.196,5.128
			c0.932-1.399-0.466-3.729-0.466-3.729l-7.925,7.459l1.865-6.993l-4.662,2.797l-0.932-5.594l-5.594,6.06l-0.932-8.391l-2.331,5.594
			l-2.331-9.324l-1.865,12.121l-6.061-9.79l0.932,11.655l-5.594-6.06l0.932,12.587l-9.79-6.527v6.527l-11.188-7.925l7.459,11.655
			l-37.295,3.729h29.836l-22.377,2.797l85.778-1.398l-17.715,4.662l69.046-4.083l34.171-0.858l-12.241,4.959l25.537-2.325
			l0.301,4.595l-0.814,0.125l-2.486-3.293l0.221,3.642l-5.566,0.857l-0.016-0.013v0.015l-4.72,0.727l-2.052-1.777l1.014,1.937
			l-9.486,1.46h4.272l-3.16,0.344h9.318l0.769,1.469l-6.045,1.163l6.567-0.165l1.266,2.419l-18.963,2.319l-0.439-2.974l-1.827,3.251
			l-1.344,0.164h1.251l-1.136,2.02l-1.542,2.742l0.69-7.399c0,0-2.529,5.452-2.069,4.283c0.46-1.168-0.23-3.115-0.23-3.115
			l-3.908,6.23l0.919-5.841l-2.299,2.336l-0.46-4.673l-2.758,5.062l-0.46-7.009l-1.149,4.673l-1.149-7.788l-0.92,10.124
			l-2.988-8.177l0.46,9.735l-2.758-5.062l0.419,9.589l-0.71,0.077l-4.077-4.604v5.451l-5.517-6.62l3.678,9.735l-18.389,3.115h14.711
			l-11.033,2.336l42.295-1.168l-8.735,3.894l18.48-1.851l1.288,3.409l-18.389,3.115h14.711l-11.033,2.336l42.295-1.168l-8.735,3.894
			l42.755-4.283l-8.834-1.448l26.715-0.738l-8.735,3.894l26.792-2.684l0.228,0.604l-18.389,3.115h14.711l-11.034,2.336l42.295-1.168
			l-8.735,3.894l8.201-0.822l-9.935,1.683h14.711l-11.034,2.337l42.295-1.168l-8.735,3.894l42.755-4.283l-14.252-2.336l6.436-1.947
			l-8.045-1.947l-2.299,1.558l0.69-4.283l-5.078,4.161l1.17-5.33l-2.758,2.336l-0.23-3.505l-1.839,2.726l-0.23-3.894l-2.299,4.283
			v-7.009l-1.227,3.325l-1.072,2.905v-5.452l-0.69-4.673l-3.056,5.435l-1.542,2.742l0.69-7.398c0,0-2.529,5.452-2.069,4.283
			c0.46-1.168-0.23-3.115-0.23-3.115l-3.908,6.23l0.919-5.841l-2.299,2.336l-0.46-4.673l-2.758,5.062l-0.46-7.009l-1.149,4.673
			l-1.139-7.718l32.108-2.322l0.28,0.535l-22.573,2.76h18.058l-13.544,2.07l51.918-1.035l-10.722,3.451l10.067-0.728l-12.195,1.491
			h18.058l-13.544,2.07l51.918-1.035l-10.722,3.45l52.482-3.796l-17.494-2.07l7.901-1.725l-9.876-1.725l-2.822,1.38l0.846-3.796
			l-6.233,3.688l1.436-4.723l-3.386,2.07l-0.282-3.099l29.178-2.656l-19.973-2.975l9.02-2.479l-11.275-2.479l-3.221,1.984
			l0.966-5.455l-7.116,5.299l1.639-6.787l-3.866,2.975l-0.322-4.463l-2.577,3.471l-0.322-4.959l-3.221,5.454v-6.882l30.859-2.232
			l0.28,0.535l-22.573,2.76h18.058l-13.544,2.07l51.918-1.035l-10.722,3.451l10.067-0.728l-12.195,1.491h18.058l-13.544,2.07
			l51.918-1.035l-10.722,3.451l52.482-3.796l-17.494-2.07L623.504,424.748z M334.129,397.311c0.022-0.008,0.243-0.095,0.539-0.226
			l0.072,1.378C334.521,398.081,334.316,397.697,334.129,397.311z M194.087,441.977h0.408l0.021,0.485L194.087,441.977z
			 M245.586,435.348l-0.252,0.62l-0.239-0.61L245.586,435.348z M242.979,426.16l-0.217,0.042l-0.051-0.042H242.979z M236.939,426.16
			h2.454v0.69l-1.356,0.261L236.939,426.16z M232.62,433.806l-4.952,0.757l-1.963-0.757H232.62z M220.142,435.855l-0.648,1.755
			l-0.464,1.258l-0.608,0.066v-3.871l-0.186-1.258h6.29l0.979,1.087l-4.784,0.731v-1.34l-0.524,1.42l-1.121,0.171L220.142,435.855z
			 M225.091,438.21l-0.002-0.031l-0.022,0.033l-1.963,0.213l-0.083-1.415l-0.811,1.512l-1.487,0.162v-2.841l5.54-0.11l1.926,2.14
			L225.091,438.21z M228.307,452.197l-0.467-0.56l0.467-0.047V452.197z M226.907,444.677l0.593-2.7h2.701L226.907,444.677z
			 M232.247,451.195l0.839-0.084l0.048,1.086L232.247,451.195z M231.295,444.799l0.454-2.821h0.938l0.08,1.824L231.295,444.799z
			 M233.594,443.241l-0.052,0.035l-0.708-1.299h2.373l0.079,1.674L233.594,443.241z M238.04,444.317l-0.436-0.105l-0.816-2.234
			h1.465L238.04,444.317z M238.545,438.758l-3.415-1.317l-0.157-0.43l0.018,0.376l-4.507-1.738l8.359-0.167L238.545,438.758z
			 M240.03,442.852l-0.129-0.874h0.344L240.03,442.852z M241.179,438.179l-0.358,1.456l-1.342-0.518l-0.537-3.638l2.76-0.055
			l0.293,4.663l-0.709-0.274L241.179,438.179z M241.639,445.188l-0.211-3.211h1.96L241.639,445.188z M244.857,444.799l-0.277-2.821
			h0.56l0.692,1.831L244.857,444.799z M246.879,447.278l-0.495,0.084l0.232-1.475l0.427,1.13L246.879,447.278z M248.965,443.953
			l-0.06,0.096l-1.726-2.071h1.786V443.953z M249.621,436.444l0.143-1.18l0.632-0.013L249.621,436.444z M251.858,417.187
			l-0.017-0.018l0.019-0.002L251.858,417.187z M251.926,442.013l-0.032-0.036h0.049C251.937,441.99,251.932,442,251.926,442.013z
			 M252.3,442.435l0.043-0.458h1.356l0.094,2.144L252.3,442.435z M258.62,437.112l-0.734-2.009l0.918-0.018L258.62,437.112z
			 M259.07,417.686l-1.052-1.08l1.177-0.107l0.048,0.991l-0.513-0.198l0.347,0.386L259.07,417.686z M259.171,417.79l-0.001-0.008
			l0.081,0.09L259.171,417.79z M265.524,454.412l0.583-2.655l2.749-0.076L265.524,454.412z M270.064,453.591l0.314-1.952l4.332-0.12
			L270.064,453.591z M278.524,411.618l-0.694,0.107l0.325-1.878l0.598,1.438L278.524,411.618z M279.997,442.436v-0.004h0.027
			L279.997,442.436z M287.289,444.088l0.041-0.001l0.004,0.083L287.289,444.088z M287.261,427.836l-0.592-0.484l1.906-0.048
			L287.261,427.836z M298.137,445.728l0.293-1.862l0.886-0.018L298.137,445.728z M303.082,429.828l0.793-0.072l-0.713,0.945
			L303.082,429.828z M303.654,445.728l0.184-1.97l0.935-0.019L303.654,445.728z M335.049,404.435l0.168,3.226l-0.675-1.126
			L335.049,404.435z M334.164,426.299h0.003l-0.005,0.005L334.164,426.299z M318.002,428.47l0.078,1.285l-1.426-1.163
			L318.002,428.47z M311.682,429.045l-0.073,0.238l-0.242-0.21L311.682,429.045z M308.941,447.675v-0.848l0.322-0.023
			L308.941,447.675z M310.013,444.77l-0.585,1.584l-0.487,0.157v-2.855l1.494-0.03L310.013,444.77z M311.24,448.454v-1.794
			l1.001-0.072L311.24,448.454z M313.538,444.17l-0.559,1.041l-1.74,0.56v-2.161l7.158-0.143l-4.81,1.548L313.538,444.17z
			 M313.768,448.064l-0.093-1.58l1.219-0.088L313.768,448.064z M326.076,454.353l-0.355-0.058l0.355-0.108V454.353z
			 M326.076,450.268v0.608l-1.964-0.475l-1.577,1.069l-0.539-0.647l0.507-3.148l-1.86,1.524l-0.083-0.1l0.048,0.128l-3.183,2.609
			l1.17-5.33l-2.758,2.336l-0.164-2.503l14.774-1.068l0.294,6.734l-3.979-0.963L326.076,450.268z M330.308,455.047l-1.494-1.688
			l1.961-0.593l0.104,2.374L330.308,455.047z M330.478,445.269l2.479-0.179l0.245,5.178L330.478,445.269z M335.731,448.71
			l-1.36-3.723l1.71-0.124L335.731,448.71z M332.481,438.874l0.715-2.353l3.375-0.067L332.481,438.874z M379.375,430.488
			l0.212,0.235l-0.248,0.048L379.375,430.488z M378.716,411.925l0.443-0.009l-0.026,0.364l-0.545,0.175L378.716,411.925z
			 M378.038,414.734l0.925-0.067l-0.119,1.672l-0.079,0.059l-0.878-1.038L378.038,414.734z M378.55,426.299h0.498
			c-0.311,0.479-0.639,0.979-0.911,1.389l-0.37,0.057c0.038-0.47-0.06-0.964-0.181-1.358L378.55,426.299z M377.316,411.953
			l-1.401,1.078l-0.869-1.027l0-0.005L377.316,411.953z M373.477,426.761l3.122-0.284l-1.453,1.672l-2.04,0.314L373.477,426.761z
			 M372.705,430.301h0.571l-0.762,0.878L372.705,430.301z M372.487,426.851l-1.666,1.222l-0.144-1.057L372.487,426.851z
			 M368.719,412.124l0.592-0.012l-0.592,1.002V412.124z M367.727,427.284l-0.856,1.134l-0.095-1.047L367.727,427.284z
			 M362.438,427.766l-0.082,0.653l-0.312-0.617L362.438,427.766z M358.944,428.084l0.195-0.018l0.113,1.732l-0.591-0.783
			L358.944,428.084z M356.05,428.347l0.036,0.597l-0.197,0.12l-0.063-0.697L356.05,428.347z M355.694,426.299l-0.054,0.022
			l-0.002-0.022H355.694z M355.29,426.299l-0.246,0.264l-1.783,0.722l-0.081-0.986H355.29z M350.246,426.299h1.799l-1.572,2.115
			l-0.227,0.092V426.299z M347.425,426.299h0.884l-0.884,1.73V426.299z M347.232,400.145l-0.453,0.756
			c-0.014-0.283-0.026-0.566-0.039-0.848C346.782,400.062,346.975,400.101,347.232,400.145z M344.075,399.688
			c0.575,0.375,1.967,0.617,2.336,0.677c0.006,0.213,0.009,0.426,0.016,0.639c0.005,0.157,0.006,0.31,0.011,0.467l-0.74,1.235
			l-2.13-1.845l-0.124-1.711C343.641,399.357,343.858,399.546,344.075,399.688z M344.172,405.248l-0.257,0.429l-0.048-0.66
			C343.968,405.098,344.07,405.182,344.172,405.248C344.171,405.248,344.172,405.248,344.172,405.248z M340.936,426.299h0.004
			l-0.004,0.005L340.936,426.299z M343.757,436.311l-5.703,1.835l0.386-1.729L343.757,436.311z M338.072,403.965
			c0.211,0.304,0.433,0.608,0.636,0.912c0.04,0.059,0.075,0.119,0.114,0.179l-0.026,0.258c-0.077-0.057-0.159-0.112-0.25-0.169
			L338.072,403.965z M336.997,401.291c0.502-0.212,1.49-0.663,1.895-1.081c0.174-0.18,0.336-0.402,0.48-0.638l-0.483,4.835
			c-0.462-0.65-0.939-1.297-1.419-1.942L336.997,401.291z M337.799,446.374l-0.239-1.617l0.648-0.047L337.799,446.374z
			 M339.409,448.71l-0.267-4.068l2.585-0.187L339.409,448.71z M371.385,444.636l0.763-0.055l-0.913,10.053l-2.988-8.177l0.46,9.735
			l-0.559-1.026l0.224-1.393l-0.68,0.557l-1.744-3.2l0.195,4.469l-2.85,2.335l1.17-5.33l-2.758,2.336l-0.23-3.505l-1.839,2.726
			l-0.23-3.894l-2.299,4.283v-7.009l-1.227,3.325l-1.072,2.905v-5.452l-0.69-4.673l-3.056,5.435l-1.542,2.742l0.69-7.399
			c0,0-2.529,5.452-2.069,4.283c0.46-1.168-0.23-3.115-0.23-3.115l-3.908,6.23l0.92-5.841l-2.299,2.336l-0.384-3.903l17.915-1.296
			l-10.844-1.283l32.793-0.654L371.385,444.636z M382.531,427.012l-2.762,0.425l0.147-1.138h3.17L382.531,427.012z M384.549,416.955
			l-0.725-0.989l0.296-1.672l0.429-0.031V416.955z M385.466,426.56l-0.053-0.261h1.508l0.015,0.035L385.466,426.56z
			 M389.053,432.981l-0.456-0.176v-0.088l0.664-0.017L389.053,432.981z M391.701,433.249l-0.05-0.609l0.633-0.016L391.701,433.249z
			 M394.24,433.939l-0.124-1.36l1.455-0.036l0.035,0.561L394.24,433.939z M406.81,438.822l-0.436-0.052l0.436-0.095V438.822z
			 M412.59,404.622c-0.179-0.192-0.331-0.351-0.357-0.373c-0.014-0.012-0.035-0.025-0.05-0.037l-0.024-0.266
			C412.303,404.17,412.449,404.396,412.59,404.622z M412.256,432.123l0.05,0.818l-0.345,0.411l-0.264-1.215L412.256,432.123z
			 M409.405,400.184c0.04-0.017,0.085-0.037,0.114-0.05c0.141,0.2,0.279,0.402,0.421,0.602c0.517,0.73,1.03,1.457,1.531,2.184
			l-0.241,0.707c-0.379-0.182-0.794-0.335-1.206-0.419L409.405,400.184z M412.004,439.436l-1.834-1.495l2.217-0.484h0.193
			l0.008,0.131l-1.667,0.257h1.682l0.102,1.675L412.004,439.436z M412.504,407.752l-0.183-2.013c0.317-0.123,0.591-0.24,0.753-0.312
			c0.175,0.301,0.345,0.601,0.506,0.9L412.504,407.752z M416.931,405.162c-0.275,0.119-0.506,0.346-0.696,0.632l-0.344-2.527
			l-1.952,2.585c-0.251-0.436-0.506-0.872-0.783-1.303c0.416-0.168,1.883-0.784,2.426-1.344c0.07-0.072,0.14-0.15,0.208-0.232
			l1.145,2.188C416.933,405.161,416.932,405.161,416.931,405.162z M420.727,406.007c-0.005,0.04-0.01,0.079-0.015,0.119l-2.285-1.98
			c0.702,0.345,1.937,0.573,2.39,0.648C420.793,405.203,420.769,405.612,420.727,406.007z M421.497,406.657l-0.074,0.085
			l-0.192-0.167c0.017-0.17,0.035-0.338,0.053-0.509c0.055-0.644,0.079-1.299,0.088-1.96c0.032,0.006,0.082,0.016,0.126,0.024
			V406.657z M442.531,424.546l-0.59-0.483l0.466-1.929l0.465-0.034l0.325,1.95L442.531,424.546z M440.417,406.073l0.715-2.352
			l3.375-0.067L440.417,406.073z M448.49,421.694l0.353-0.026l0.405,1.17l0.007,0.13L448.49,421.694z M445.989,405.346l0.386-1.729
			l5.317-0.106L445.989,405.346z M452.495,441.994l0.64-2.105l2.852-0.072l0.006,0.107L452.495,441.994z M458.612,439.752
			l0.481-0.012l0.046,0.71L458.612,439.752z M459.172,418.952l-0.515-0.061l0.558-0.011L459.172,418.952z M463.564,419.471
			l-1.228-0.145l-0.055-0.508l2.033-0.04L463.564,419.471z M466.046,422.561l-1.65,2.391l0.773-4.464l1.542-0.112L466.046,422.561z
			 M466.867,419.862l-1.558-0.184l0.16-0.923l1.746-0.035L466.867,419.862z M468.096,419.591l-0.147-0.885l0.769-0.015
			L468.096,419.591z M470.194,420.985c0.294-0.68,0.252-1.564,0.119-2.327l1.182-0.023
			C470.654,420.256,469.859,421.757,470.194,420.985z M474.15,439.817l-1.437,0.582l0.22-1.007l1.622-0.041L474.15,439.817z
			 M474.287,421.46l-2.16,3.492l0.651-6.342l3.314-0.066L474.287,421.46z M493.838,441.493l-2.25,2.408l-0.179-2.187
			L493.838,441.493z M488.484,441.981l1.806-0.164l-1.806,2.43V441.981z M485.663,442.237l0.707-0.064l-0.707,1.383V442.237z
			 M482.757,421.034v-1.537l-0.718,1.768l-1.311,0.422l1.174-0.085l-0.865,2.129l-1.502,3.7v-6.942l-0.326-2.008l12.241-0.244
			L482.757,421.034z M501.044,410.301l-0.022-0.268c0.115-0.024,0.234-0.054,0.356-0.09L501.044,410.301z M501.988,408.55
			c-0.261-0.223-0.683-0.464-1.14-0.638l-0.087-1.062l-0.642,0.864c-0.382-0.058-0.746-0.037-1.018,0.13
			c-0.556,0.34-0.623,1.073-0.245,1.57l-0.916,1.232v-4.565c0.07,0.004,0.143,0.014,0.21,0.014c0.682-0.003,2.026-0.62,2.133-0.669
			c0.34,0.751,0.75,1.493,1.207,2.222c0.261,0.417,0.536,0.829,0.818,1.238C502.152,408.718,502.01,408.569,501.988,408.55z
			 M503.584,410.991l-0.029-0.321c0.056,0.079,0.11,0.158,0.166,0.237L503.584,410.991z M511.522,412.34
			c-0.034-0.201-0.064-0.369-0.071-0.395c-0.019-0.068-0.05-0.145-0.079-0.221l0.159-0.712c0.002,0.129,0.009,0.263,0.009,0.391
			C511.542,411.719,511.531,412.029,511.522,412.34z M511.888,413.278c0.01-0.248,0.03-0.493,0.033-0.743
			c0.191,0.039,0.656,0.125,1.133,0.172L511.888,413.278z M644.498,415.186l-3.307,0.87l-1.099-0.798L644.498,415.186z
			 M571.408,413.788l0.053,1.057l-0.69-0.333l-0.367-0.724H571.408z M561.838,419.046l0.689-2.264h2.798l0.012,0.195
			L561.838,419.046z M567.939,416.782h0.497l0.047,0.72L567.939,416.782z M581.744,418.882l0.458-2.1h1.367L581.744,418.882z
			 M588.516,418.882l0.271-2.1h1.365L588.516,418.882z M596.321,418.033l-1.316,2.574v-3.825h1.955L596.321,418.033z"/>
		<polygon style="fill:#263238;stroke:#263238;stroke-miterlimit:10;" points="394.158,403.615 394.158,403.615 394.159,403.615 		
			"/>
		<polygon style="fill:#263238;stroke:#263238;stroke-miterlimit:10;" points="520.64,406.719 520.513,404.615 518.106,405.14 
			519.94,406.636 		"/>
		<polygon style="fill:#263238;stroke:#263238;stroke-miterlimit:10;" points="417.731,399.52 417.207,398.519 416.922,399.826 
			417.53,399.752 		"/>
		<polygon style="fill:#263238;stroke:#263238;stroke-miterlimit:10;" points="400.657,404.111 400.632,403.706 400.56,404.032 		
			"/>
		<polygon style="fill:#263238;stroke:#263238;stroke-miterlimit:10;" points="400.599,403.149 399.568,403.223 400.301,403.82 
			400.628,403.627 		"/>
		<polygon style="fill:#263238;stroke:#263238;stroke-miterlimit:10;" points="400.653,403.612 400.628,403.627 400.632,403.706 		
			"/>
	</g>
</g>
<g id="Cows">
	<g>
		<path style="fill:#263238;stroke:#263238;stroke-miterlimit:10;" d="M365.689,340.346c0,0-5.141,11.216-7.01,24.769
			c-1.869,13.553-5.608,33.182-7.478,38.79c-1.869,5.608-11.684,17.759-11.216,20.563c0.467,2.804,7.945,3.271,11.216,0.935
			c3.271-2.337,4.673-7.478,6.543-10.282c1.869-2.804,3.739-7.01,6.543-10.282c2.804-3.272,14.488-39.725,21.031-46.735
			c6.543-7.01,16.825-23.367,16.825-23.367L365.689,340.346z"/>
		<g>
			<path style="fill:#92E3A9;stroke:#263238;stroke-miterlimit:10;" d="M358.288,346.402c0,0,9.403,0.448,13.656,3.134
				c4.254,2.686,7.388,3.134,13.88,3.358c6.492,0.224,13.432-3.134,18.357-8.955c4.925-5.821,4.254-14.552,2.686-15.895
				C405.301,326.701,358.288,346.402,358.288,346.402z"/>
			<path style="fill:#92E3A9;stroke:#263238;stroke-miterlimit:10;" d="M380.676,350.655c0,0-0.224,6.716,1.567,7.388
				c1.791,0.672,3.582-5.149,3.582-5.149"/>
			<path style="fill:#92E3A9;stroke:#263238;stroke-miterlimit:10;" d="M392.764,348.64c0,0,1.119,8.507,2.91,7.164
				c1.791-1.343,1.343-8.955,1.343-8.955"/>
			<path style="fill:#92E3A9;stroke:#263238;stroke-miterlimit:10;" d="M404.182,343.939c0,0,0,4.254,0.896,3.134
				c0.896-1.119-0.448-7.388-0.448-7.388"/>
		</g>
		<path style="fill:#263238;stroke:#263238;stroke-miterlimit:10;" d="M317.504,402.392c0,0-1.044,22.976,0.261,26.631
			c1.305,3.655,3.133,6.788,0.783,8.877c-2.35,2.089-9.138,2.35-10.966,0c-1.828-2.35,1.044-7.049,1.566-9.138
			c0.522-2.089-1.828-15.927-2.089-18.015c-0.261-2.089-1.044-4.961-1.044-4.961L317.504,402.392z"/>
		<g>
			<path style="fill:#92E3A9;" d="M246.564,314.211c0,0-2.961,43.434-0.74,55.279c2.221,11.846-3.455,23.691-3.702,27.886
				c-0.247,4.195-0.494,5.676-0.494,6.416c0,0.74-1.234,7.65-3.949,14.067c-2.715,6.416-8.144,13.326-8.884,17.768
				c-0.74,4.442,5.676,4.442,8.637,4.195c2.961-0.247,5.182-2.961,6.663-5.923s0.74-13.82,4.195-21.223
				c3.455-7.404,9.871-20.73,11.352-27.887c1.481-7.157,1.234-13.573,2.468-16.534c1.234-2.961,7.157-18.015,7.404-19.743
				C269.762,346.787,246.564,314.211,246.564,314.211z"/>
			<polygon style="fill:#263238;stroke:#263238;stroke-miterlimit:10;" points="253.927,325.907 262.111,368.257 269.515,348.514 
							"/>
			<path style="fill:#FFFFFF;" d="M259.574,385.084c-1.746,1.515-4.327,3.693-7.802,3.693c-3.702,0-5.487-2.695-6.34-4.977
				c-1.195,6.107-3.167,11.139-3.311,13.578c-0.247,4.195-0.494,5.676-0.494,6.416s-1.234,7.65-3.949,14.067
				c-2.715,6.416-8.144,13.326-8.884,17.768c-0.74,4.442,5.676,4.442,8.637,4.195c2.961-0.247,5.182-2.961,6.663-5.923
				c1.481-2.961,0.74-13.82,4.195-21.223C251.702,405.37,257.988,392.304,259.574,385.084z"/>
			<path style="fill:none;stroke:#263238;stroke-miterlimit:10;" d="M246.564,314.211c0,0-2.961,43.434-0.74,55.279
				c2.221,11.846-3.455,23.691-3.702,27.886c-0.247,4.195-0.494,5.676-0.494,6.416c0,0.74-1.234,7.65-3.949,14.067
				c-2.715,6.416-8.144,13.326-8.884,17.768c-0.74,4.442,5.676,4.442,8.637,4.195c2.961-0.247,5.182-2.961,6.663-5.923
				s0.74-13.82,4.195-21.223c3.455-7.404,9.871-20.73,11.352-27.887c1.481-7.157,1.234-13.573,2.468-16.534
				c1.234-2.961,7.157-18.015,7.404-19.743C269.762,346.787,246.564,314.211,246.564,314.211z"/>
			<path style="fill:#263238;stroke:#263238;stroke-miterlimit:10;" d="M237.433,439.824c1.784-0.149,3.297-1.196,4.544-2.65
				c-3.795-5.383-13.181-1.545-13.181-1.545C228.055,440.071,234.472,440.071,237.433,439.824z"/>
		</g>
		<path style="fill:#92E3A9;stroke:#263238;stroke-miterlimit:10;" d="M281.607,222.902c0,0,11.599-2.221,20.483-7.897
			c8.884-5.676,20.977-8.637,40.226-9.625c19.249-0.987,48.616,7.65,48.616,7.65s5.182-1.234,8.884,1.974
			c3.702,3.208,30.801-3.014,35.674,4.858c4.873,7.872,3.374,27.74,3.374,36.361c0,8.622,1.125,33.362,3.374,48.732
			c2.249,15.369-2.999,32.988-3.374,41.234c-0.375,8.247,0.75,15.744,2.624,21.742c1.874,5.998,2.624,9.371,1.499,18.368
			c-1.125,8.997-1.874,25.49-1.499,28.864c0.375,3.374,2.249,14.245-0.75,15.744c-2.999,1.499-10.121,1.125-10.871-2.249
			c-0.75-3.374,2.999-6.747,2.999-8.622c0-1.874,0-11.621-0.75-17.993c-0.75-6.373-3.374-14.619-5.248-22.117
			c-1.874-7.497-2.249-12.37-4.498-20.992c-2.249-8.622-11.246-25.116-11.246-25.116s-8.247,2.999-20.617,8.997
			c-12.37,5.998-38.611,4.873-55.854,3.374c-17.244-1.499-32.238-8.247-32.238-8.247s-7.122-38.236-16.869-66.725
			C275.8,242.729,280.292,230.44,281.607,222.902z"/>
		<path style="fill:#FFFFFF;" d="M347.461,260.406c0.514-15.422,3.855-25.446-5.398-29.301c-9.253-3.855-14.908-5.398-12.594-6.426
			c2.313-1.028,15.936,0,16.964-4.626c1.028-4.627-0.514-8.225-6.94-8.482c-6.426-0.257-18.249,2.57-23.133,3.855
			c-3.041,0.8-7.279,1.202-11.285,1.764c-5.78,3.4-12.38,5.432-16.149,6.41c-1.91,2.045-3.041,4.793-2.381,8.533
			c1.542,8.739,15.422,21.333,15.422,21.333l1.542,11.052c0,0,1.799-8.225,5.141-7.454s5.655,19.02,14.651,14.651
			c8.996-4.369-0.771-23.389,2.57-26.474c3.341-3.084,12.08,12.337,11.823,17.221c-0.257,4.884,3.855,11.566,3.855,11.566
			S346.947,275.828,347.461,260.406z"/>
		<path style="fill:none;stroke:#263238;stroke-miterlimit:10;" d="M322.803,313.342c-4.276,3.832-7.46,5.039-7.46,5.039"/>
		<path style="fill:none;stroke:#263238;stroke-miterlimit:10;" d="M339.191,258.471c0,0,0.291,31.7-7.561,44.206
			c-1.646,2.622-3.318,4.835-4.932,6.694"/>
		<path style="fill:none;stroke:#263238;stroke-miterlimit:10;" d="M313.016,283.773c0,0-1.745,6.98-7.561,11.342"/>
		<path style="fill:none;stroke:#263238;stroke-miterlimit:10;" d="M369.606,218.599c5.385-0.82,11.847-1.5,14.372-0.553
			c4.653,1.745,1.163,6.398,0,6.689"/>
		<path style="fill:none;stroke:#263238;stroke-miterlimit:10;" d="M361.294,220.082c0,0,1.971-0.413,4.778-0.904"/>
		<path style="fill:none;stroke:#263238;stroke-miterlimit:10;" d="M412.904,268.921c-1.691,10.215-3.704,23.48-4.686,34.037
			c-1.869,20.096-0.102,24.285,1.402,27.573"/>
		<path style="fill:none;stroke:#263238;stroke-miterlimit:10;" d="M415.695,252.952c0,0-0.669,3.567-1.622,9.066"/>
	</g>
	<g>
		<path style="fill:#263238;stroke:#263238;stroke-miterlimit:10;" d="M399.269,340.759c0,0-2.4,19.775-10.748,29.779
			c-8.348,10.004-18.538-15.665-18.538-15.665S400.86,329.62,399.269,340.759z"/>
		<path style="fill:#263238;stroke:#263238;stroke-miterlimit:10;" d="M585.872,345.967c0,0,1.477,10.096,0,17.484
			c-1.478,7.388,2.216,16.745,2.216,16.745l1.231-6.895c0,0,0.985,4.432,1.97,5.91c0.985,1.477,5.91,6.156,5.91,6.156
			s-0.739-7.387-0.739-13.297c0-5.91-3.448-14.036-3.448-14.036l3.694,1.231c0,0-1.231-5.91-2.955-9.358
			c-1.724-3.447-6.403-8.372-6.403-8.372S585.872,342.766,585.872,345.967z"/>
		<path style="fill:#D4D4D4;stroke:#263238;stroke-miterlimit:10;" d="M539.824,340.549c0,0,4.925,20.439,7.388,29.796
			c2.463,9.357,5.664,19.7,5.417,22.655c-0.246,2.955-1.477,13.544-2.462,15.267c-0.985,1.724-4.432,6.895-4.432,6.895
			s-2.463,2.216-3.201,4.432c-0.739,2.216,3.694,2.709,7.141,2.709s5.91-0.739,6.895-2.709c0.985-1.97,1.231-3.448,1.478-4.679
			c0.246-1.231,1.97-3.694,2.955-8.372c0.985-4.679,0.246-16.991,1.724-20.439c1.477-3.448,3.94-19.7,4.432-23.147
			s1.231-16.252,1.231-16.252L539.824,340.549z"/>
		<path style="fill:#D4D4D4;stroke:#263238;stroke-miterlimit:10;" d="M430.025,352.226c0,0,0.617,19.448,3.688,38.579
			c3.071,19.13,5.67,36.287,5.67,36.287s-3.639,7.799-1.04,9.358c2.599,1.56,12.997,1.04,15.077-2.6
			c2.08-3.639-4.159-23.915-4.159-33.793c0-9.878,6.239-44.711,6.239-44.711s5.199-20.276,0-17.677
			C450.301,340.268,430.025,352.226,430.025,352.226z"/>
		<path style="fill:#FFFFFF;stroke:#263238;stroke-miterlimit:10;" d="M622.972,358.641c-0.749-8.612-4.119-12.731-7.863-23.963
			c-3.744-11.233-3.876-47.428-2.048-60.222c1.828-12.794,2.611-28.72-0.522-39.425c-2.779-9.495-18.693-11.183-22.258-11.444
			c-3.051-1.346-7.522-3.445-9.713-5.089c-3.51-2.633-16.09-7.898-25.743-5.851c-1.561,0.331-3.238,0.477-4.951,0.491
			c-7.174-1.96-14.549-4.028-21.406-6.045c-26.632-7.833-79.894-5.483-88.51-4.7c-8.616,0.783-40.469,7.311-45.691,22.454
			c-5.222,15.143-18.799,40.208-36.031,75.717c-17.232,35.509-26.109,36.031-26.109,36.031l-2.331,3.324
			c0,0,10.858,2.247,20.219,3.744c9.361,1.498,32.201,15.726,32.95,14.603c0.749-1.123,4.493-5.617,7.863-7.114
			c3.37-1.498,6.74,0,12.73,2.995c5.991,2.995,20.594,8.237,27.708,4.493c7.114-3.744,13.479-11.233,15.726-13.105
			c2.247-1.872,17.598-1.872,17.598-1.872s32.575,14.977,41.936,14.603c9.361-0.375,32.201-8.612,32.201-8.612
			s5.991,1.498,11.233,3.744c5.242,2.247,23.589,2.996,32.95-2.621c9.361-5.616,7.489-14.977,7.489-14.977l4.868,4.867
			c0,0,3.744,12.356,6.365,20.219c2.621,7.863,8.986,16.475,9.361,25.087c0.374,8.612,0,17.973,0,17.973s-1.498,5.991-2.247,8.237
			c-0.749,2.247,0.749,3.744,0.749,3.744s-3.37,2.995-4.493,5.242c-1.123,2.247,2.621,2.621,5.242,3.744
			c2.621,1.123,11.607,0,12.356-3.744c0.749-3.744-1.123-10.858-1.872-17.973C619.976,396.084,623.721,367.253,622.972,358.641z"/>
		<path style="fill:none;stroke:#263238;stroke-miterlimit:10;" d="M610.385,285.593c0,0-1.591,25.992-4.244,32.357
			c-2.652,6.365-8.487,7.426-8.487,7.426"/>
		<path style="fill:#92E3A9;" d="M339.435,335.291c0,0,8.911-9.914,12.624-14.689c3.713-4.774,7.957-2.652,13.792,2.122
			c5.835,4.774,8.572,5.482,11.182,13.35c2.609,7.868,0.488,21.129,0.488,21.129l-42.868-11.013L339.435,335.291z"/>
		<g>
			<path style="fill:#FFFFFF;stroke:#263238;stroke-miterlimit:10;" d="M360.584,336.857c0,0-0.261-3.655-3.133-4.177
				c-2.872-0.522-11.227,2.611-18.015,2.611c-6.788,0-13.577-2.872-16.449-1.306c-2.872,1.566-6.005,6.005-4.177,10.183
				c1.828,4.177,4.177,8.616,4.177,8.616s6.58,26.879,5.509,30.28c-1.07,3.401,1.279,2.879,5.196,7.317
				c3.916,4.439,9.922,19.843,12.533,27.154c2.611,7.311,0.522,12.793,1.044,16.71c0.522,3.916,5.222,5.483,12.271,5.222
				c7.049-0.261,9.399-3.133,11.749-4.177c2.35-1.044,5.483-0.261,6.788-3.916c1.305-3.655-1.044-8.616-2.35-11.488
				c-1.305-2.872-0.783-6.005,1.044-10.183c1.828-4.177,12.532-28.981,11.749-39.164c-0.783-10.183-12.532-22.715-15.404-24.543
				C370.245,344.168,360.584,336.857,360.584,336.857z"/>
			<path style="fill:#263238;stroke:#263238;stroke-miterlimit:10;" d="M362.934,434.767c0,0-1.567-3.133-0.261-5.222
				c1.305-2.089,4.961-5.744,4.961-3.394C367.633,428.501,365.284,435.811,362.934,434.767z"/>
			<path style="fill:#92E3A9;" d="M359.801,345.996c0,0-6.005,1.305-10.183,1.044c-4.177-0.261-8.094,0.261-8.094,5.222
				c0,4.961,4.961,8.094,4.177,10.183c-0.783,2.089-3.133,8.094-3.655,10.705c-0.522,2.611,0,9.399,0,9.399s3.916,7.572,8.094,8.094
				c4.178,0.522,7.049,3.133,9.922,2.089c2.872-1.044,10.705-3.916,13.577-6.527c2.872-2.611,4.177-11.488,4.177-11.488l-1.828-9.66
				c0,0-3.655-3.916-4.439-5.483c-0.783-1.567-1.305-1.044-1.566-4.7s-2.089-6.005-2.872-6.527
				C366.328,347.823,359.801,345.996,359.801,345.996z"/>
			<path style="fill:#263238;stroke:#263238;stroke-miterlimit:10;" d="M361.106,351.478c0,0-6.005-6.266-3.655-12.01
				c2.35-5.744,19.321-6.527,19.582-3.394c0.261,3.133,1.566,12.01-2.611,14.099c-4.177,2.089-7.833,1.305-8.616,2.089
				c-0.783,0.783-1.828,2.35-1.828,2.35"/>
			<path style="fill:#263238;stroke:#263238;stroke-miterlimit:10;" d="M355.956,371.097c3.702,8.704-4.975,9.246-4.975,9.246
				s3.025,2.751,6.473,0.249C362.652,376.821,355.956,371.097,355.956,371.097z"/>
		</g>
		<path style="fill:#FFFFFF;stroke:#263238;stroke-miterlimit:10;" d="M561.556,352.707c0,0-0.823,8.847,1.234,10.081
			c2.057,1.234,3.292-10.493,3.292-10.493"/>
		<path style="fill:#FFFFFF;stroke:#263238;stroke-miterlimit:10;" d="M570.403,351.061c0,0-0.411,6.172,0.823,6.789
			c1.234,0.617,3.498-7.818,3.498-7.818"/>
		<path style="fill:#FFFFFF;stroke:#263238;stroke-miterlimit:10;" d="M576.163,350.65c0,0,0,6.789,1.646,6.995
			c1.646,0.206,2.263-8.024,2.263-8.024"/>
		<path style="fill:none;stroke:#263238;stroke-miterlimit:10;" d="M579.025,267.552c-0.075,7.18-0.221,16.301-0.505,24.667
			c-0.585,17.26,4.681,33.349,9.069,38.908"/>
		<path style="fill:none;stroke:#263238;stroke-miterlimit:10;" d="M579.105,254.481c0,0,0,2.815-0.03,7.238"/>
		<g>
			<path style="fill:#FFFFFF;stroke:#263238;stroke-miterlimit:10;" d="M472.621,285.783c0,0,7.021,33.935,4.388,39.785
				c-2.633,5.851-12.287,17.552-14.042,23.696c-1.755,6.143-9.946,33.349-13.457,43.296c-3.51,9.946-1.463,22.233-1.17,28.961
				c0.292,6.728-0.293,9.654-0.293,13.457s-6.728,5.266-11.116,5.851c-4.388,0.585-10.824-0.585-9.946-3.218
				c0.878-2.633,3.51-4.681,3.51-4.681s-0.585-3.218,1.17-6.143c1.755-2.925,4.973-18.43,5.266-21.355
				c0.292-2.925-3.218-9.654-3.218-14.627s3.51-21.063,4.681-26.328c1.17-5.266,4.973-29.254,4.388-36.567
				c-0.097-1.211,0.111-2.454,0.495-3.743"/>
			<path style="fill:none;stroke:#263238;stroke-miterlimit:10;" d="M431.592,305.785c4.169,0.475,7.679,0.329,8.557,1.353"/>
			<path style="fill:none;stroke:#263238;stroke-miterlimit:10;" d="M415.868,274.959c0,0-3.803,18.723,3.218,25.743
				c1.755,1.755,3.84,2.907,6.006,3.68"/>
			<path style="fill:none;stroke:#263238;stroke-miterlimit:10;" d="M421.719,322.35c0,0,17.845-4.096,21.063,5.558"/>
		</g>
		<path style="fill:none;stroke:#263238;stroke-miterlimit:10;" d="M544.474,344.211c-4.494,2.355-7.202,3.005-7.202,3.005"/>
		<path style="fill:none;stroke:#263238;stroke-miterlimit:10;" d="M575.302,307.723c0,0-9.654,21.355-20.185,29.547
			c-2.459,1.912-4.742,3.474-6.798,4.744"/>
		<path style="fill:#92E3A9;" d="M393.434,295.672c0,0-6.896,13.261-5.835,15.383c1.061,2.122,4.774,9.018,1.591,12.731
			c-3.183,3.713-12.2-1.591-11.67,3.713c0.53,5.305,2.652,7.426,5.304,12.2c2.652,4.774,17.505,4.774,21.748-1.061
			c4.243-5.835,14.322-0.53,17.505-2.122c3.183-1.591-4.774-7.957-10.078-13.792c-5.304-5.835,3.713-9.548-0.53-21.748
			C407.225,288.776,399.799,289.306,393.434,295.672z"/>
		<path style="fill:#92E3A9;" d="M529.227,226.714c0,0-21.218-13.792-29.174-10.609c-7.957,3.183-13.791,6.896-7.426,11.139
			c6.365,4.243,15.913,7.957,15.913,15.383c0,7.426-5.835,10.078,3.713,15.383c9.548,5.304,18.566,9.548,23.87-3.183
			c5.304-12.731,10.078-26.522,13.792-27.053c3.713-0.53-0.53-10.078-8.487-9.548C533.471,218.757,537.714,225.653,529.227,226.714z
			"/>
		<path style="fill:#92E3A9;" d="M573.254,221.94c0,0-13.261-0.531-12.731,4.774c0.53,5.304,2.652,7.957,6.365,7.957
			c3.713,0,9.017-0.53,9.548-4.244C576.967,226.714,573.254,221.94,573.254,221.94z"/>
		<path style="fill:#92E3A9;" d="M409.347,252.706c0,0-9.018,8.487-6.365,11.139c2.652,2.652,4.244,4.243,5.835,2.652
			c1.591-1.591,6.365-2.652,6.365-5.835c0-3.183,6.896-5.835,4.244-8.487C416.773,249.523,412.53,250.053,409.347,252.706z"/>
		<path style="fill:#92E3A9;" d="M389.721,283.471c-2.122-4.774-1.591-6.896-5.304-5.835c-1.221,0.349-1.978,0.87-2.451,1.413
			c0.572-2.512,0.859-5.656,0.859-5.656s-7.426-1.591-8.487,3.183c0,0-4.774,7.957-6.365,12.731
			c-1.591,4.774,2.652,6.896,4.243,4.774c0.756-1.008,2.591-3.455,4.422-5.972c1.593-0.275,3.005-0.258,3.005,0.668
			c0,2.122,4.244,3.713,4.244,3.713S391.843,288.245,389.721,283.471z"/>
	</g>
	<g>
		<path style="fill:#92E3A9;stroke:#263238;stroke-miterlimit:10;" d="M296.167,238.943c0,0,7.157,49.11,11.846,71.32
			c4.689,22.21,9.131,38.745,11.846,43.187c2.715,4.442,3.208,6.663,2.221,7.404c-0.987,0.74-44.174,9.871-45.161,11.352
			c-0.987,1.481-5.923-8.144-10.612-18.756c-4.689-10.612-12.833-21.964-18.015-30.848c-5.182-8.884-11.599-20.73-8.391-28.874
			c3.208-8.144,9.871-16.781,9.871-16.781s10.858-27.146,16.534-35.783c5.676-8.637,15.547-21.717,20.236-20.483
			s5.182,2.715,5.182,2.715"/>
		<path style="fill:none;stroke:#263238;stroke-miterlimit:10;" d="M253.354,313.375c2.285-1.077,4.867-3.146,7.282-7.009"/>
		<path style="fill:none;stroke:#263238;stroke-miterlimit:10;" d="M262.129,316.06c0.3,1.778,0.657,3.501,1.081,5.113"/>
		<path style="fill:none;stroke:#263238;stroke-miterlimit:10;" d="M260.636,290.271c0,0-0.397,11.508,0.99,22.374"/>
		<g>
			<path style="fill:#92E3A9;" d="M298.635,352.216c0,0-4.442-10.118-7.404-11.846c-2.961-1.727-8.884-6.416-12.833-3.208
				c-3.949,3.208-3.208,13.82-1.974,16.288c1.234,2.468,9.378,4.689,9.378,4.689l4.689,0.247c0,0-10.858-0.247-19.496,13.573
				c-8.637,13.82-8.884,20.236-7.157,26.899c1.727,6.663,0.987,12.586,1.234,20.73s-3.702,7.65-3.702,13.326
				s0.74,10.365,4.936,12.092c4.195,1.728,6.17,2.961,16.288,0.987c10.118-1.974,5.429-10.858,5.923-12.339
				c0.493-1.481,13.079-21.964,16.534-23.938c3.455-1.974,12.092-2.715,17.522-6.91c5.429-4.195,5.182-13.82,5.923-19.743
				c0.74-5.923,6.663-5.429,5.182-11.352c-1.481-5.923-3.702-7.897-11.105-13.82S304.311,346.54,298.635,352.216z"/>
			<path style="fill:#FFFFFF;" d="M324.038,364.801c-5.741-7.092-11.144-6.754-14.521-2.026c-3.377,4.728-3.039,10.468-0.675,15.871
				c2.364,5.403-1.351,15.871-14.858,28.704c-13.508,12.832-14.521,20.261-16.547,21.612c-2.026,1.351-8.78-1.351-10.806,2.701
				c-1.943,3.887-3.576-0.919-5.196,3.747c0.243,4.526,1.311,8.129,4.872,9.596c4.195,1.728,6.17,2.961,16.288,0.987
				s5.429-10.858,5.923-12.339c0.494-1.481,13.079-21.964,16.534-23.938c3.455-1.974,12.092-2.715,17.522-6.91
				c5.429-4.195,5.182-13.82,5.923-19.743c0.74-5.923,6.663-5.429,5.182-11.352C333.678,371.712,329.778,371.892,324.038,364.801z"
				/>
			<path style="fill:none;stroke:#263238;stroke-miterlimit:10;" d="M298.635,352.216c0,0-4.442-10.118-7.404-11.846
				c-2.961-1.727-8.884-6.416-12.833-3.208c-3.949,3.208-3.208,13.82-1.974,16.288c1.234,2.468,9.378,4.689,9.378,4.689l4.689,0.247
				c0,0-10.858-0.247-19.496,13.573c-8.637,13.82-8.884,20.236-7.157,26.899c1.727,6.663,0.987,12.586,1.234,20.73
				s-3.702,7.65-3.702,13.326s0.74,10.365,4.936,12.092c4.195,1.728,6.17,2.961,16.288,0.987
				c10.118-1.974,5.429-10.858,5.923-12.339c0.493-1.481,13.079-21.964,16.534-23.938c3.455-1.974,12.092-2.715,17.522-6.91
				c5.429-4.195,5.182-13.82,5.923-19.743c0.74-5.923,6.663-5.429,5.182-11.352c-1.481-5.923-3.702-7.897-11.105-13.82
				S304.311,346.54,298.635,352.216z"/>
			<path style="fill:#263238;stroke:#263238;stroke-miterlimit:10;" d="M296.908,392.195c-9.131-2.468-4.195-9.624-4.195-9.624
				s-4.032,0.679-4.195,4.936C288.27,393.922,296.908,392.195,296.908,392.195z"/>
			<path style="fill:#263238;stroke:#263238;stroke-miterlimit:10;" d="M272.229,443.772c0,0,3.948-3.948,1.234-5.429
				s-7.65,1.481-6.416,2.961C268.281,442.785,272.229,443.772,272.229,443.772z"/>
			<path style="fill:#263238;stroke:#263238;stroke-miterlimit:10;" d="M296.661,353.944c0,0-2.221-8.637-7.65-12.339
				c-5.429-3.702-10.365-1.974-11.105,1.974c-0.74,3.948-0.247,8.884,2.468,10.858c2.715,1.974,12.092,3.702,13.82,2.715
				C295.92,356.164,296.661,353.944,296.661,353.944z"/>
			<path style="fill:none;stroke:#263238;stroke-miterlimit:10;" d="M297.895,396.884c0,0,6.663,0.987,8.884-7.897"/>
		</g>
	</g>
</g>
</svg>
